<svg id="Capa_1" enable-background="new 0 0 512 512" height="512" viewBox="0 0 512 512" width="512" xmlns="http://www.w3.org/2000/svg"><g><path d="m451 317c0-68.374-20.408-146.117-54.593-207.962-38.865-70.314-88.729-109.038-140.407-109.038s-101.542 38.724-140.407 109.038c-34.185 61.845-54.593 139.588-54.593 207.962 0 129.082 74.355 195 195 195 120.707 0 195-65.95 195-195zm-195 165c-75.272 0-165-28.626-165-165 0-63.528 19.009-135.845 50.849-193.449 32.862-59.453 74.468-93.551 114.151-93.551s81.289 34.098 114.151 93.551c31.84 57.604 50.849 129.921 50.849 193.449 0 136.374-89.728 165-165 165z"/><path d="m256 212c-57.897 0-105 47.103-105 105s47.103 105 105 105 105-47.103 105-105-47.103-105-105-105zm0 180c-41.355 0-75-33.645-75-75s33.645-75 75-75 75 33.645 75 75-33.645 75-75 75z"/></g></svg>