<?xml version="1.0" encoding="iso-8859-1"?>
<!-- Generator: Adobe Illustrator 19.0.0, SVG Export Plug-In . SVG Version: 6.00 Build 0)  -->
<svg version="1.1" id="Layer_1" xmlns="http://www.w3.org/2000/svg" xmlns:xlink="http://www.w3.org/1999/xlink" x="0px" y="0px"
	 viewBox="0 0 512.002 512.002" style="enable-background:new 0 0 512.002 512.002;" xml:space="preserve">
<g>
	<g>
		<path d="M509.168,261.764c-6.298-25.108-22.237-43.442-44.578-51.883c-2.421-15.737-10.828-31.687-23.603-43.945
			c-13.65-13.099-30.421-20.459-48.267-21.4c-6.999-15.074-20.225-28.235-36.393-35.499c-17.089-7.68-35.387-8.233-52.746-1.82
			c-9.798-9.778-25.591-19.121-47.587-19.121c-21.994,0-37.785,9.342-47.581,19.12c-17.359-6.413-35.654-5.859-52.741,1.82
			c-16.168,7.265-29.397,20.427-36.395,35.499c-17.849,0.942-34.622,8.302-48.271,21.4c-12.775,12.257-21.179,28.208-23.6,43.946
			c-22.338,8.44-38.272,26.771-44.57,51.874c-5.81,23.156-2.4,49.064,7.583,66.016c-6.904,14.584-9.517,35.425-2.852,54.483
			c4.855,13.879,18.905,37.703,58.471,41.333c2.367,0.217,4.926,0.318,7.687,0.318c13.868,0,32.774-2.563,57.37-5.896
			c35.495-4.81,79.669-10.797,124.898-10.797c45.232,0,89.404,5.987,124.897,10.797c29.497,3.999,50.811,6.881,65.076,5.578
			c39.548-3.629,53.599-27.448,58.455-41.322c6.67-19.059,4.063-39.905-2.836-54.491
			C511.569,310.826,514.976,284.921,509.168,261.764z M469.477,338.83c2.864,2.914,8.441,18.721,3.278,32.813
			c-4.069,11.107-13.829,17.22-29.838,18.688c-10.489,0.957-32.294-1.994-57.542-5.414c-36.488-4.945-81.898-11.099-129.382-11.099
			c-47.483,0-92.895,6.155-129.383,11.101c-25.241,3.42-47.043,6.374-57.521,5.413c-16.021-1.469-25.786-7.584-29.852-18.696
			c-5.157-14.089,0.424-29.889,3.277-32.788L56.2,325.726l-14.748-11.918c-5.055-4.084-11.258-23.864-6.225-43.927
			c4.345-17.321,14.921-27.696,31.434-30.838l14.889-2.833l-1.383-15.094c-0.891-9.726,4.72-22.218,13.96-31.085
			c4.993-4.79,15.007-12.192,29.215-12.192c1.798,0,3.665,0.118,5.595,0.376l15.745,2.101l2.883-15.621
			c1.825-9.889,10.786-20.249,21.793-25.195c8.009-3.598,20.647-6.022,35.365,2.875l15.74,10.198l7.763-16.871
			c1.151-2.016,8.898-14.209,27.766-14.209c18.871,0,26.624,12.194,27.777,14.212l7.513,16.335l15.989-9.665
			c14.72-8.898,27.357-6.474,35.367-2.875c11.005,4.945,19.966,15.305,21.79,25.195l2.883,15.621l15.746-2.101
			c17.176-2.291,29.182,6.42,34.808,11.817c9.242,8.868,14.852,21.36,13.961,31.083l-1.383,15.094l14.889,2.833
			c16.517,3.144,27.096,13.522,31.443,30.848c5.032,20.059-1.168,39.834-6.22,43.917l-14.754,11.9L469.477,338.83z"/>
	</g>
</g>
<g>
	<g>
		<path d="M384.907,237.478c-22.348-24.698-62.855-54.14-128.914-54.14c-66.048,0-106.554,29.441-128.902,54.142
			c-24.214,26.759-32.741,53.787-33.093,54.924l31.909,9.852c0.065-0.208,6.95-21.375,25.945-42.37
			c25.91-28.634,60.948-43.152,104.141-43.152c42.67,0,77.404,14.181,103.236,42.149c19.701,21.33,26.81,43.218,26.879,43.436
			l15.934-4.99l15.955-4.925C417.647,291.266,409.121,264.236,384.907,237.478z"/>
	</g>
</g>
<g>
</g>
<g>
</g>
<g>
</g>
<g>
</g>
<g>
</g>
<g>
</g>
<g>
</g>
<g>
</g>
<g>
</g>
<g>
</g>
<g>
</g>
<g>
</g>
<g>
</g>
<g>
</g>
<g>
</g>
</svg>
