<?xml version="1.0" encoding="iso-8859-1"?>
<!-- Generator: Adobe Illustrator 19.0.0, SVG Export Plug-In . SVG Version: 6.00 Build 0)  -->
<svg version="1.1" id="Layer_1" xmlns="http://www.w3.org/2000/svg" xmlns:xlink="http://www.w3.org/1999/xlink" x="0px" y="0px"
	 viewBox="0 0 505.139 505.139" style="enable-background:new 0 0 505.139 505.139;" xml:space="preserve">
<g transform="translate(1)">
	<g>
		<g>
			<path d="M234.016,156.209v-50.361c0-5.036-3.357-8.393-8.393-8.393c-5.036,0-8.393,3.357-8.393,8.393v50.361
				c0,5.036,3.357,8.393,8.393,8.393C230.659,164.603,234.016,160.406,234.016,156.209z"/>
			<path d="M484.98,273.718c-1.679-3.357-5.036-5.036-9.233-4.197s-6.715,4.197-6.715,8.393c0,6.65-2.429,15.411-7.023,25.415
				c-1.569-3.974-3.395-7.733-5.567-11.146c-15.108-26.859-36.092-48.682-94.846-78.059
				c-57.075-28.538-83.095-125.902-83.095-126.741c-0.345-1.381-1.264-2.757-2.512-3.846c-0.002-0.118-0.004-0.232-0.006-0.35
				V34.505c0-4.197-2.518-6.715-5.875-8.393l-83.934-25.18c-2.518-0.839-5.036,0-7.554,1.679c-2.518,1.679-3.357,4.197-3.357,6.715
				v58.754c0,2.518,0,5.036,0,6.715c0,28.156-1.332,52.314-3.624,73.054c-13.505,31.394-34.901,54.064-62.684,67.956
				c-58.754,29.377-79.738,51.2-94.846,78.059C1.518,315.685-1,340.865-1,358.491c0,83.741,76.986,103.597,136.304,111.35
				c28.351,23.125,58.949,34.696,90.319,34.696c20.596,0,40.445-5.238,60.251-14.294c18.641,7.978,41.281,14.294,66.49,14.294
				c26.859,0,56.236-6.715,87.292-26.859C549.61,408.852,485.82,275.396,484.98,273.718z M351.525,231.751
				c55.397,27.698,74.702,47.843,88.131,71.344c4.085,6.536,6.579,14.67,9.031,23.614c-11.876,17.698-28.609,36.921-49.32,54.445
				c-9.375,8.036-22.003,17.78-37.275,26.971c3.104-9.716,5.423-20.811,6.219-31.168c0-4.197,0-9.233,0-13.43
				c0-13.43-2.518-26.859-7.554-39.449c-3.499-9.184-7.917-17.907-13.12-26.061c-7.213-11.524-16.301-22.275-27.169-31.854
				c-1.168-1.168-1.985-1.985-3.357-3.357c-15.588-16.944-26.796-46.48-33.628-85.946c-1.524-8.986-2.872-18.812-3.991-29.558
				C293.776,178.29,317.231,215.022,351.525,231.751z M15.787,358.491c0-15.948,2.518-37.77,12.59-56.236
				c13.43-24.341,33.574-44.485,88.131-72.184c18.466-9.233,34.413-21.823,47.843-38.61c-0.833,3.746-1.717,7.375-2.65,10.886
				c-9.006,32.694-21.091,50.281-31.763,59.619c-29.377,26.02-46.164,62.111-47.003,99.882
				c-0.726,32.667,10.486,62.818,31.446,87.204C46.711,436.419,15.787,407.902,15.787,358.491z M226.462,487.75
				c-28.238,0-56.475-10.691-82.274-32.872c-0.092-0.693-0.821-0.702-0.821-0.702c-0.839-0.839-1.679-1.679-2.518-2.518
				c-0.105-0.105-0.223-0.223-0.351-0.351c-0.384-0.384-0.856-0.856-1.328-1.328c-0.63-0.63-1.259-1.259-1.679-1.679
				c-4.437-4.131-8.507-8.544-12.198-13.187c-1.357-1.809-2.713-3.618-4.07-5.427c-13.933-19.756-21.291-43.143-20.663-67
				c0-0.884,0.016-1.767,0.038-2.649c0.795-23.175,8.727-45.471,22.32-64.196c0.014-0.019,0.029-0.039,0.043-0.058
				c0.528-0.727,1.067-1.447,1.613-2.163c0.378-0.495,0.763-0.985,1.15-1.475c0.2-0.254,0.397-0.51,0.599-0.762
				c4.579-5.707,9.714-11.066,15.366-15.989c18.071-15.812,31.27-42.585,39.614-80.02c3.168-13.915,5.649-29.23,7.389-45.882
				c0.161-0.806,0.196-1.612,0.121-2.394c2.154-21.492,3.236-45.317,3.236-71.468c0-1.679,0-4.197,0-7.554V20.236l67.148,20.144
				v36.092l0.839,6.715c0.839,99.882,18.466,167.869,50.361,195.567c42.717,37.692,53.665,95.442,27.02,142.392
				c-24.514,11.153-53.503,19.1-85.394,17.891c-5.445-0.284-10.887-0.831-16.328-1.647c-1.757-0.351-3.51-0.108-5.02,0.594
				c-2.093,0.752-3.942,2.222-5.052,4.442c-2.518,6.715,2.518,11.751,10.072,17.626c4.849,3.81,15.426,12.05,30.351,20.415
				C253.629,485.319,239.643,487.75,226.462,487.75z M431.262,463.409c-74.702,47.003-141.01,14.269-172.066-7.554
				c68.826,0,123.384-37.77,151.921-62.111c3.628-3.055,7.153-6.189,10.578-9.38c17.657-16.285,33.325-34.509,45.658-53.57
				c0.567-1.134,1.121-2.274,1.171-3.666c4.204-7.081,7.759-14.024,10.58-20.675c4.197,11.751,7.554,26.859,8.393,43.646
				C490.856,399.619,471.551,438.229,431.262,463.409z"/>
		</g>
	</g>
</g>
<g>
</g>
<g>
</g>
<g>
</g>
<g>
</g>
<g>
</g>
<g>
</g>
<g>
</g>
<g>
</g>
<g>
</g>
<g>
</g>
<g>
</g>
<g>
</g>
<g>
</g>
<g>
</g>
<g>
</g>
</svg>
