<svg id="Capa_1" enable-background="new 0 0 510 510" height="512" viewBox="0 0 510 510" width="512" xmlns="http://www.w3.org/2000/svg"><path d="m449.106 132.716-54.532-42.763c7.691-8.077 12.427-18.992 12.427-31v-13.953c0-24.813-20.187-45-45-45h-214.001c-24.813 0-45 20.187-45 45v13.953c0 12.007 4.736 22.922 12.427 31l-54.532 42.763c-8.062 6.322-7.547 18.717 1.024 24.343 24.695 16.212 27.633 18.772 36.88 21.779l-.009 285.892c0 24.962 20.313 45.27 45.28 45.27h221.86c24.968 0 45.28-20.308 45.28-45.27l-.009-285.893c4.832-1.572 9.47-3.787 13.771-6.608l23.109-15.171c8.58-5.631 9.078-18.027 1.025-24.342zm-316.106-87.716c0-8.271 6.729-15 15-15h214c8.271 0 15 6.729 15 15v13.953c0 8.273-6.731 15-15 15h-214c-8.258 0-15-6.716-15-15zm248.201 135.25.001 35.417h-252.404l.001-35.42c6.687-1.505 13.104-4.214 18.901-8.017 9.176-6.021 20.574-6.021 29.762.009 19.161 12.548 43.575 12.509 62.662-.011 9.024-5.927 20.552-6.042 29.759.004 19.115 12.54 43.529 12.532 62.665 0 9.121-5.982 20.625-5.997 29.755 0 5.802 3.807 12.219 6.516 18.898 8.018zm.004 232.75h-252.41l.008-167.333h252.395zm-15.275 67h-221.86c-8.426 0-15.28-6.85-15.28-15.27l.001-21.73h252.418l.001 21.73c0 8.42-6.854 15.27-15.28 15.27zm42.583-332.852c-8.975 5.887-20.505 6.066-29.747.005-19.099-12.546-43.539-12.556-62.663-.012-9.12 5.974-20.633 5.999-29.758.011-19.098-12.543-43.567-12.56-62.683-.004-9.061 5.943-20.568 6.014-29.752.002-19.035-12.495-43.635-12.495-62.668-.002-16.436 10.783-30.444-.452-35.405-3.71l50.409-39.53h217.508l50.409 39.53z"/><path d="m292.235 357.25c16.054-22.77 20.487-57.253-4.991-71.362-15.924-8.82-48.566-8.819-64.488 0-25.505 14.124-21 48.657-4.991 71.362 20.736 29.409 53.724 29.424 74.47 0zm-54.944-45.119c6.753-3.74 28.665-3.74 35.418 0 1.225.679 2.613 1.447 2.613 6.151 0 13.625-11.396 31.018-20.322 31.018-8.927 0-20.322-17.393-20.322-31.018 0-4.704 1.389-5.472 2.613-6.151z"/></svg>